<svg preserveAspectRatio="none" overflow="visible" style="display: block;" width="20.004" height="11.1289" viewBox="0 0 20.004 11.1289" fill="none" xmlns="http://www.w3.org/2000/svg">
<g id="ICN">
<path id="Union" d="M17.4659 0C17.8523 2.31654e-08 18.1658 0.31382 18.1661 0.700195V1.81152H19.3038C19.6902 1.81152 20.0037 2.12534 20.004 2.51172C20.004 2.89832 19.6904 3.21191 19.3038 3.21191H18.1661V4.32324C18.1661 4.70984 17.8525 5.02441 17.4659 5.02441C17.0795 5.02441 16.766 4.71059 16.7657 4.32422V3.21191L15.627 3.21289C15.2406 3.21289 14.9271 2.89907 14.9268 2.5127C14.9268 2.1261 15.2404 1.8125 15.627 1.8125L16.7657 1.81152V0.701172C16.7657 0.314573 17.0793 1.5858e-09 17.4659 0Z" fill="black"/>
<path id="Union_2" d="M3.85645 3.06348C4.41849 3.06349 4.90942 3.13749 5.3291 3.28516C5.74884 3.43286 6.14249 3.67687 6.50977 4.0166C6.62956 4.14203 6.72684 4.27487 6.80176 4.41504C6.88413 4.54785 6.92571 4.68838 6.92578 4.83594C6.92578 5.03532 6.8543 5.20539 6.71191 5.3457C6.5696 5.47855 6.39001 5.54483 6.17285 5.54492C6.00046 5.54492 5.86502 5.50073 5.76758 5.41211C5.67017 5.32351 5.5463 5.21293 5.39648 5.08008C5.27663 4.96937 5.16445 4.8732 5.05957 4.79199C4.96213 4.70337 4.85657 4.6294 4.74414 4.57031C4.63181 4.51133 4.50455 4.46701 4.3623 4.4375C4.21989 4.40057 4.0471 4.38184 3.84473 4.38184C3.44765 4.38188 3.10699 4.4602 2.82227 4.61523C2.54506 4.76288 2.31982 4.9653 2.14746 5.22363C1.97507 5.47474 1.84807 5.76727 1.76562 6.09961C1.69071 6.43188 1.65234 6.77547 1.65234 7.12988C1.65239 7.98641 1.82519 8.65143 2.16992 9.12402C2.52216 9.59642 3.05061 9.83295 3.75488 9.83301C4.0547 9.83301 4.31389 9.79218 4.53125 9.71094C4.75596 9.62972 4.96539 9.50371 5.16016 9.33398C5.33248 9.17157 5.47125 8.99803 5.57617 8.81348C5.6886 8.62147 5.77175 8.38512 5.82422 8.10449H4.44141C4.16424 8.10449 3.97639 8.03805 3.87891 7.90527C3.78904 7.77245 3.74422 7.63195 3.74414 7.48438C3.74414 7.03387 3.9767 6.80859 4.44141 6.80859H6.57715C6.77952 6.80859 6.94485 6.86719 7.07227 6.98535C7.207 7.09609 7.27436 7.26979 7.27441 7.50586V10.5088C7.27438 10.5751 7.26691 10.6417 7.25195 10.708C7.24442 10.7744 7.21777 10.8375 7.17285 10.8965C7.12786 10.948 7.05622 10.9881 6.95898 11.0176C6.86906 11.0544 6.74189 11.0732 6.57715 11.0732C6.41975 11.0732 6.296 11.0545 6.20605 11.0176C6.11622 10.9881 6.04462 10.9481 5.99219 10.8965C5.94722 10.8374 5.91733 10.7778 5.90234 10.7188C5.88738 10.6524 5.87989 10.5859 5.87988 10.5195V10.165C5.81996 10.2388 5.75588 10.3086 5.68848 10.375C5.62104 10.4414 5.558 10.4977 5.49805 10.542C5.25825 10.734 4.98821 10.8776 4.68848 10.9736C4.39625 11.077 4.02147 11.1289 3.56445 11.1289C2.98745 11.1289 2.47731 11.0404 2.03516 10.8633C1.59301 10.6787 1.21841 10.4158 0.911133 10.0762C0.61132 9.72906 0.382011 9.31165 0.224609 8.82422C0.0747601 8.32947 0 7.77162 0 7.15137C2.64455e-05 6.64926 0.0672592 6.15433 0.202148 5.66699C0.344562 5.17223 0.569673 4.73264 0.876953 4.34863C1.19174 3.96467 1.59295 3.65427 2.08008 3.41797C2.56723 3.18172 3.1595 3.06348 3.85645 3.06348ZM11.6162 3.25195C12.5006 3.25196 13.1941 3.41095 13.6963 3.72852C14.1983 4.03868 14.4492 4.56674 14.4492 5.3125C14.4492 5.52647 14.4235 5.7223 14.3711 5.89941C14.3186 6.06928 14.2472 6.22156 14.1572 6.35449C14.0673 6.48733 13.9617 6.60131 13.8418 6.69727C13.7221 6.78571 13.5988 6.86332 13.4717 6.92969C13.6964 7.00353 13.8876 7.10399 14.0449 7.22949C14.2021 7.34751 14.3294 7.48384 14.4268 7.63867C14.5242 7.79371 14.5957 7.96389 14.6406 8.14844C14.6856 8.33307 14.708 8.52185 14.708 8.71387C14.708 9.49653 14.4496 10.0654 13.9326 10.4199C13.4154 10.767 12.6804 10.9404 11.7285 10.9404H9.31152C8.89938 10.9404 8.69346 10.7447 8.69336 10.3535V3.80566C8.69345 3.64338 8.74574 3.51053 8.85059 3.40723C8.96295 3.30397 9.12762 3.25201 9.34473 3.25195H11.6162ZM10.2334 9.67773H11.8633C12.298 9.67773 12.6095 9.57733 12.7969 9.37793C12.9915 9.17122 13.0889 8.93468 13.0889 8.66895C13.0888 8.53615 13.0706 8.40667 13.0332 8.28125C12.9957 8.15579 12.9275 8.04517 12.8301 7.94922C12.7327 7.85331 12.6055 7.7792 12.4482 7.72754C12.2908 7.66846 12.0956 7.63867 11.8633 7.63867H10.2334V9.67773ZM10.2334 6.39844H11.7402C11.9498 6.3984 12.1221 6.37287 12.2568 6.32129C12.3992 6.26959 12.5123 6.19898 12.5947 6.11035C12.677 6.02183 12.737 5.92214 12.7744 5.81152C12.8119 5.69346 12.83 5.57509 12.8301 5.45703C12.8301 5.33889 12.8119 5.22404 12.7744 5.11328C12.737 5.00265 12.677 4.90299 12.5947 4.81445C12.5123 4.72583 12.3992 4.65521 12.2568 4.60352C12.122 4.5519 11.9498 4.5264 11.7402 4.52637H10.2334V6.39844Z" fill="black"/>
</g>
</svg>
